<?xml version="1.0" standalone="no"?>
<!DOCTYPE svg PUBLIC "-//W3C//DTD SVG 20010904//EN"
 "http://www.w3.org/TR/2001/REC-SVG-20010904/DTD/svg10.dtd">
<svg version="1.0" xmlns="http://www.w3.org/2000/svg"
 width="526.000000pt" height="526.000000pt" viewBox="0 0 526.000000 526.000000"
 preserveAspectRatio="xMidYMid meet">
<metadata>
Created by potrace 1.11, written by Peter Selinger 2001-2013
</metadata>
<g transform="translate(0.000000,526.000000) scale(0.100000,-0.100000)"
fill="#000000" stroke="none">
<path d="M0 2630 l0 -2630 2630 0 2630 0 0 2630 0 2630 -2630 0 -2630 0 0
-2630z m1475 2081 c483 -131 805 -628 720 -1114 -17 -101 -59 -219 -109 -314
l-36 -68 207 -207 208 -208 -277 0 -276 0 -450 468 -449 467 261 3 260 2 73
-72 c84 -84 85 -83 104 27 44 258 -129 512 -396 580 -169 43 -345 -8 -473
-137 -204 -203 -204 -528 1 -730 103 -102 239 -154 384 -146 l74 3 167 -179
c92 -98 173 -187 180 -197 11 -16 8 -21 -27 -38 -153 -78 -439 -106 -631 -62
-311 71 -580 310 -696 619 -53 141 -67 234 -61 391 6 167 28 258 97 396 136
274 386 467 690 531 100 21 353 12 455 -15z m1317 -680 c3 -687 3 -700 24
-728 11 -15 42 -39 70 -53 44 -22 61 -25 164 -25 103 0 120 3 164 25 98 49 90
-8 96 727 l5 645 232 -243 232 -244 1 -437 c0 -435 0 -437 -24 -502 -70 -194
-216 -326 -431 -388 -71 -20 -101 -23 -270 -23 -216 1 -265 10 -400 75 -164
80 -279 212 -329 379 -14 48 -16 141 -16 773 l0 718 240 0 240 0 2 -699z
m2238 464 l0 -235 -190 0 -190 0 0 -730 0 -730 -250 0 -250 0 0 730 0 730
-167 0 -168 0 -197 204 c-109 112 -209 218 -224 235 l-26 31 831 0 831 0 0
-235z"/>
</g>
</svg>
